<?xml version="1.0" encoding="UTF-8" standalone="no"?>
<svg width="85px" height="58px" viewBox="0 0 85 58" version="1.1" xmlns="http://www.w3.org/2000/svg" xmlns:xlink="http://www.w3.org/1999/xlink">
    <!-- Generator: Sketch 42 (36781) - http://www.bohemiancoding.com/sketch -->
    <title>solar_icon copy_blue</title>
    <desc>Created with Sketch.</desc>
    <defs></defs>
    <g id="nick's-powerwall-pages" stroke="none" stroke-width="1" fill="none" fill-rule="evenodd" stroke-linecap="round" stroke-linejoin="round">
        <g id="nick-powerwall---interior" transform="translate(-452.000000, -2669.000000)" stroke="#2BABE2" stroke-width="2">
            <g id="//-module-3-//" transform="translate(0.000000, 2404.000000)">
                <g id="::-icons" transform="translate(342.000000, 246.000000)">
                    <g id="rooftop-solar" transform="translate(0.000000, 20.000000)">
                        <g id="solar_icon-copy" transform="translate(111.000000, 0.000000)">
                            <path d="M22.4791667,32.9990166 C16.8241,32.9990166 12.23918,28.3906357 12.23918,22.7066323 C12.23918,17.0226289 16.8241,12.4142481 22.4791667,12.4142481 C28.1342333,12.4142481 32.7191533,17.0226289 32.7191533,22.7066323" id="Stroke-1"></path>
                            <path d="M22.4791667,4.63116776 L22.4791667,0.112885599" id="Stroke-3"></path>
                            <path d="M0,22.7066323 L6.49613333,22.7066323" id="Stroke-5"></path>
                            <path d="M22.4791667,6.64114705 L22.4791667,0.11177327" id="Stroke-7"></path>
                            <path d="M0,22.7066323 L6.49613333,22.7066323" id="Stroke-9"></path>
                            <path d="M35.19532,9.92541094 L38.3747733,6.72968847" id="Stroke-11"></path>
                            <path d="M6.58400267,38.6831312 L11.1766693,34.0669641" id="Stroke-13"></path>
                            <path d="M6.58400267,6.73002217 L11.1766693,11.3461893" id="Stroke-15"></path>
                            <path d="M33.781332,11.3466343 L38.3739987,6.73046711" id="Stroke-17"></path>
                            <path d="M6.58400267,38.6831312 L11.1766693,34.0669641" id="Stroke-19"></path>
                            <path d="M6.58400267,6.73002217 L11.1766693,11.3461893" id="Stroke-21"></path>
                            <path d="M14.4737613,41.8247945 L55.3330013,41.8247945" id="Stroke-23"></path>
                            <path d="M28.3070947,27.9206765 L68.4901613,27.9206765" id="Stroke-25"></path>
                            <polygon id="Stroke-27" points="41.5001107 55.7289124 83.0001107 14.0165586 42.1408707 14.0165586 0.640870667 55.7289124"></polygon>
                            <path d="M62.5702693,14.0164474 L21.0702693,55.7288012" id="Stroke-29"></path>
                        </g>
                    </g>
                </g>
            </g>
        </g>
    </g>
</svg>