<?xml version="1.0" encoding="UTF-8" standalone="no"?>
<svg viewBox="0 0 66 66" version="1.1" xmlns="http://www.w3.org/2000/svg" xmlns:xlink="http://www.w3.org/1999/xlink">
    <!-- Generator: Sketch 42 (36781) - http://www.bohemiancoding.com/sketch -->
    <title>Felxible Installationicon_10times</title>
    <desc>Created with Sketch.</desc>
    <defs></defs>
    <g id="nick's-powerwall-pages" stroke="none" stroke-width="1" fill="none" fill-rule="evenodd">
        <g id="nick-powerwall---exterior" transform="translate(-689.000000, -4127.000000)" stroke-width="2">
            <g id="//-module-4-//" transform="translate(-6.000000, 3003.000000)">
                <g id="installation" transform="translate(614.000000, 1125.000000)">
                    <g id="Felxible-Installation" transform="translate(82.000000, 0.000000)">
                        <path d="M47.5369675,63.5376956 L63.4926403,47.5459388 M63.4926403,63.5376956 L47.5369675,47.5459388" id="Stroke-1" stroke="#2BABE2" stroke-linejoin="round"></path>
                        <path d="M16.2428223,63 L0.00017527928,63 L0.00017527928,0 L47.0001753,0 L47.0001753,31.5 M35.772535,63 C39.6389526,63 42.7733039,57.4029441 42.7733039,50.4986268 C42.7733039,43.5970559 39.6389526,38 35.772535,38 C31.9076552,38 28.7733039,43.5970559 28.7733039,50.4986268 C28.7733039,57.4029441 31.9076552,63 35.772535,63 L35.772535,63 Z M12,15 L34,15 L12,15 Z" id="Stroke-3" stroke="#2BABE2" stroke-linejoin="round"></path>
                        <path d="M23,38 L22.0391699,62.5011679" id="Line" stroke="#2CABE1" stroke-linecap="square"></path>
                        <path d="M22.5,38.5 L18.3768944,42.6231056" id="Line" stroke="#2CABE1" stroke-linecap="square"></path>
                    </g>
                </g>
            </g>
        </g>
    </g>
</svg>