<?xml version="1.0" encoding="UTF-8" standalone="no"?>
<svg width="86px" height="81px" viewBox="0 0 86 81" version="1.1" xmlns="http://www.w3.org/2000/svg" xmlns:xlink="http://www.w3.org/1999/xlink">
    <!-- Generator: Sketch 42 (36781) - http://www.bohemiancoding.com/sketch -->
    <title>backup_icon copyicon-backup_your_home/_blue</title>
    <desc>Created with Sketch.</desc>
    <defs>
        <rect id="path-1" x="25" y="24" width="9" height="5"></rect>
        <mask id="mask-2" maskContentUnits="userSpaceOnUse" maskUnits="objectBoundingBox" x="0" y="0" width="9" height="5" fill="white">
            <use xlink:href="#path-1"></use>
        </mask>
        <rect id="path-3" x="25" y="13" width="9" height="5"></rect>
        <mask id="mask-4" maskContentUnits="userSpaceOnUse" maskUnits="objectBoundingBox" x="0" y="0" width="9" height="5" fill="white">
            <use xlink:href="#path-3"></use>
        </mask>
        <polygon id="path-5" points="0 18 10.5 11.8662109 21 18 21 34 0 34"></polygon>
        <mask id="mask-6" maskContentUnits="userSpaceOnUse" maskUnits="objectBoundingBox" x="0" y="0" width="21" height="22.1337891" fill="white">
            <use xlink:href="#path-5"></use>
        </mask>
        <rect id="path-7" x="4" y="22" width="13" height="12"></rect>
        <mask id="mask-8" maskContentUnits="userSpaceOnUse" maskUnits="objectBoundingBox" x="0" y="0" width="13" height="12" fill="white">
            <use xlink:href="#path-7"></use>
        </mask>
        <rect id="path-9" x="37" y="24" width="7" height="10"></rect>
        <mask id="mask-10" maskContentUnits="userSpaceOnUse" maskUnits="objectBoundingBox" x="0" y="0" width="7" height="10" fill="white">
            <use xlink:href="#path-9"></use>
        </mask>
        <polygon id="path-11" points="19 9 35.5 0.68359375 52 9 52 34 19 34"></polygon>
        <mask id="mask-12" maskContentUnits="userSpaceOnUse" maskUnits="objectBoundingBox" x="0" y="0" width="33" height="33.3164062" fill="white">
            <use xlink:href="#path-11"></use>
        </mask>
        <rect id="path-13" x="28" y="36" width="16" height="2"></rect>
        <mask id="mask-14" maskContentUnits="userSpaceOnUse" maskUnits="objectBoundingBox" x="0" y="0" width="16" height="2" fill="white">
            <use xlink:href="#path-13"></use>
        </mask>
    </defs>
    <g id="nick's-powerwall-pages" stroke="none" stroke-width="1" fill="none" fill-rule="evenodd">
        <g id="nick-powerwall---interior" transform="translate(-915.000000, -2657.000000)">
            <g id="//-module-3-//" transform="translate(0.000000, 2404.000000)">
                <g id="::-icons" transform="translate(342.000000, 246.000000)">
                    <g id="backup" transform="translate(444.000000, 0.000000)">
                        <g id="backup_icon-copy" transform="translate(122.000000, 0.000000)">
                            <g id="Group-3-Copy-2" transform="translate(20.000000, 28.000000)" stroke="#2BABE2" stroke-width="4">
                                <use id="Rectangle-2" mask="url(#mask-2)" xlink:href="#path-1"></use>
                                <use id="Rectangle-2-Copy" mask="url(#mask-4)" xlink:href="#path-3"></use>
                                <use id="Rectangle-3" mask="url(#mask-6)" xlink:href="#path-5"></use>
                                <use id="Rectangle-4" mask="url(#mask-8)" xlink:href="#path-7"></use>
                                <use id="Rectangle" mask="url(#mask-10)" xlink:href="#path-9"></use>
                                <use id="Rectangle-34" mask="url(#mask-12)" xlink:href="#path-11"></use>
                                <use id="Rectangle-35" mask="url(#mask-14)" xlink:href="#path-13"></use>
                            </g>
                            <g id="Group-14">
                                <path d="M47.6255221,86.511598 C60.9883715,86.511598 72.7769374,79.7712889 79.7768306,69.5050598 C84.0268593,63.2718548 86.511598,55.7388594 86.511598,47.6255221 C86.511598,38.8027951 83.5733575,30.666331 78.6220213,24.1412746 C71.5208685,14.7831092 60.2789818,8.73944614 47.6255221,8.73944614 C38.0374521,8.73944614 29.2598713,12.2095626 22.4801735,17.9624017 C14.074119,25.0952682 8.73944614,35.7374053 8.73944614,47.6255221 C8.73944614,58.7261212 13.3907477,68.7403506 20.850711,75.8255703" id="Oval" stroke="#2BABE2" stroke-width="2" transform="translate(47.625522, 47.625522) rotate(-165.000000) translate(-47.625522, -47.625522) "></path>
                                <polygon id="Rectangle-4" fill="#2BABE2" transform="translate(84.344584, 33.306609) rotate(20.000000) translate(-84.344584, -33.306609) " points="78.2686345 27.2306598 90.4205333 27.2306598 78.2686345 39.3825586"></polygon>
                            </g>
                        </g>
                    </g>
                </g>
            </g>
        </g>
    </g>
</svg>