<svg width="91" height="91" viewBox="109 197 91 91" xmlns="http://www.w3.org/2000/svg"><g fill="none" fill-rule="evenodd"><path d="M154.1750645 198.4516129c-24.1083871 0-43.72403224 19.6141936-43.72403224 43.7240323 0 24.1083871 19.61564514 43.7240322 43.72403224 43.7240322 24.1098387 0 43.7240323-19.6156451 43.7240323-43.7240322 0-24.1098387-19.6141936-43.7240323-43.7240323-43.7240323m0 88.173871c-24.5090322 0-44.4498387-19.9408065-44.4498387-44.4498387 0-24.5090323 19.9408065-44.44983875 44.4498387-44.44983875 24.5104839 0 44.4498387 19.94080645 44.4498387 44.44983875 0 24.5090322-19.9393548 44.4498387-44.4498387 44.4498387" fill="#2BABE2"/><path d="M154.1750645 198.4516129c-24.1083871 0-43.72403224 19.6141936-43.72403224 43.7240323 0 24.1083871 19.61564514 43.7240322 43.72403224 43.7240322 24.1098387 0 43.7240323-19.6156451 43.7240323-43.7240322 0-24.1098387-19.6141936-43.7240323-43.7240323-43.7240323zm0 88.173871c-24.5090322 0-44.4498387-19.9408065-44.4498387-44.4498387 0-24.5090323 19.9408065-44.44983875 44.4498387-44.44983875 24.5104839 0 44.4498387 19.94080645 44.4498387 44.44983875 0 24.5090322-19.9393548 44.4498387-44.4498387 44.4498387z" stroke="#2BABE2"/><path d="M126.5717742 259.3562097c-.045 0-.09-.0087097-.1335484-.0261291-.1858064-.0725806-.2772581-.2845161-.2032258-.4703225l7.8358065-19.7883871c.052258-.1306452.1756451-.2206452.3179032-.2293549.1393548.0145162.2743548.0711291.341129.1945162l9.9827419 19.0712903 7.1520968-19.0306452c.0711291-.1887097.2816129-.2830645.4674194-.2119355.187258.0711291.2830645.2801613.2119355.4674194l-7.4380646 19.7883871c-.0508064.135-.1741935.225-.3179032.2351613-.1393548-.0014516-.277258-.0682258-.3425806-.1945162l-9.9914516-19.0858064-7.5454839 19.0509677c-.0566129.1422581-.1916129.2293549-.3367742.2293549" fill="#2BABE2"/><path d="M126.5717742 259.3562097c-.045 0-.09-.0087097-.1335484-.0261291-.1858064-.0725806-.2772581-.2845161-.2032258-.4703225l7.8358065-19.7883871c.052258-.1306452.1756451-.2206452.3179032-.2293549.1393548.0145162.2743548.0711291.341129.1945162l9.9827419 19.0712903 7.1520968-19.0306452c.0711291-.1887097.2816129-.2830645.4674194-.2119355.187258.0711291.2830645.2801613.2119355.4674194l-7.4380646 19.7883871c-.0508064.135-.1741935.225-.3179032.2351613-.1393548-.0014516-.277258-.0682258-.3425806-.1945162l-9.9914516-19.0858064-7.5454839 19.0509677c-.0566129.1422581-.1916129.2293549-.3367742.2293549z" stroke="#2BABE2"/><path d="M172.6575806 259.3562097h-.0130645c-.1451613-.0058065-.2743548-.0972581-.3251613-.2337097l-7.5716129-19.7883871c-.071129-.1872581.0217742-.3962903.2090323-.4674194.1872581-.0754838.3977419.0217742.468871.2090323l7.2653225 18.9914516 8.9346775-19.016129c.0856451-.1829032.3048387-.2554839.4833871-.1741936.1814516.0841936.2583871.3019355.1741935.4833871l-9.2975806 19.7869355c-.0595162.127742-.1872581.2090323-.3280646.2090323" fill="#2BABE2"/><path d="M172.6575806 259.3562097h-.0130645c-.1451613-.0058065-.2743548-.0972581-.3251613-.2337097l-7.5716129-19.7883871c-.071129-.1872581.0217742-.3962903.2090323-.4674194.1872581-.0754838.3977419.0217742.468871.2090323l7.2653225 18.9914516 8.9346775-19.016129c.0856451-.1829032.3048387-.2554839.4833871-.1741936.1814516.0841936.2583871.3019355.1741935.4833871l-9.2975806 19.7869355c-.0595162.127742-.1872581.2090323-.3280646.2090323z" stroke="#2BABE2"/><path d="M173.521 239.5326935h-28.8870968c-.2003226 0-.3629032-.1625806-.3629032-.3629032s.1625806-.3629032.3629032-.3629032H173.521c.2003226 0 .3629032.1625806.3629032.3629032s-.1625806.3629032-.3629032.3629032" fill="#2BABE2"/><path d="M173.521 239.5326935h-28.8870968c-.2003226 0-.3629032-.1625806-.3629032-.3629032s.1625806-.3629032.3629032-.3629032H173.521c.2003226 0 .3629032.1625806.3629032.3629032s-.1625806.3629032-.3629032.3629032z" stroke="#2BABE2"/><path d="M162.3580968 226.6992742c-.5443549-1.8217742-1.6112903-3.9933871-3.6014516-3.9933871-1.9916129 0-3.0585484 2.1716129-3.6029033 3.9933871l-2.6274193 8.7866129h12.4591935l-2.6274193-8.7866129z" stroke="#2BABE2" stroke-width="1.25" fill="#2CABE1"/></g></svg>