<svg width="91" height="91" viewBox="486 197 91 91" xmlns="http://www.w3.org/2000/svg"><g fill="none" fill-rule="evenodd"><path d="M531.2026452 198.4516129c-24.1243549 0-43.75161294 19.6272581-43.75161294 43.7516129s19.62725804 43.7516129 43.75161294 43.7516129c24.1243548 0 43.7516129-19.6272581 43.7516129-43.7516129S555.327 198.4516129 531.2026452 198.4516129m0 88.2290323c-24.525 0-44.4774194-19.9524194-44.4774194-44.4774194 0-24.525 19.9524194-44.47741935 44.4774194-44.47741935 24.525 0 44.4774193 19.95241935 44.4774193 44.47741935s-19.9524193 44.4774194-44.4774193 44.4774194" fill="#2BABE2"/><path d="M531.2026452 198.4516129c-24.1243549 0-43.75161294 19.6272581-43.75161294 43.7516129s19.62725804 43.7516129 43.75161294 43.7516129c24.1243548 0 43.7516129-19.6272581 43.7516129-43.7516129S555.327 198.4516129 531.2026452 198.4516129zm0 88.2290323c-24.525 0-44.4774194-19.9524194-44.4774194-44.4774194 0-24.525 19.9524194-44.47741935 44.4774194-44.47741935 24.525 0 44.4774193 19.95241935 44.4774193 44.47741935s-19.9524193 44.4774194-44.4774193 44.4774194z" stroke="#2BABE2"/><path d="M520.1745968 264.6226613c-.2003226 0-.3629033-.1625807-.3629033-.3629032v-7.3509678c0-4.1995161 5.058871-9.3019355 11.2761291-11.3733871 5.9443548-1.9814516 10.781129-7.5991935 10.781129-12.5216129v-9.1901613c0-.2003225.1625807-.3629032.3629032-.3629032.2003226 0 .3629033.1625807.3629033.3629032v9.1901613c0 5.2112903-5.058871 11.1367742-11.2775807 13.2096774-5.9429032 1.98-10.7796774 6.7746775-10.7796774 10.6853226v7.3509678c0 .2003225-.1625806.3629032-.3629032.3629032" fill="#2BABE2"/><path d="M520.1745968 264.6226613c-.2003226 0-.3629033-.1625807-.3629033-.3629032v-7.3509678c0-4.1995161 5.058871-9.3019355 11.2761291-11.3733871 5.9443548-1.9814516 10.781129-7.5991935 10.781129-12.5216129v-9.1901613c0-.2003225.1625807-.3629032.3629032-.3629032.2003226 0 .3629033.1625807.3629033.3629032v9.1901613c0 5.2112903-5.058871 11.1367742-11.2775807 13.2096774-5.9429032 1.98-10.7796774 6.7746775-10.7796774 10.6853226v7.3509678c0 .2003225-.1625806.3629032-.3629032.3629032z" stroke="#2BABE2"/><path d="M549.5838387 231.1291613c-.0929032 0-.1858064-.0348387-.2569355-.1059678l-7.0954838-7.0969354-7.0954839 7.0969354c-.1422581.1408065-.3716129.1408065-.513871 0-.1408064-.142258-.1408064-.3716129 0-.5138709l7.3524194-7.3524194c.1364516-.1364516.3774193-.1364516.5138709 0l7.3524194 7.3524194c.1408064.142258.1408064.3716129 0 .5138709-.071129.0711291-.1640323.1059678-.2569355.1059678" fill="#2BABE2"/><path d="M549.5838387 231.1291613c-.0929032 0-.1858064-.0348387-.2569355-.1059678l-7.0954838-7.0969354-7.0954839 7.0969354c-.1422581.1408065-.3716129.1408065-.513871 0-.1408064-.142258-.1408064-.3716129 0-.5138709l7.3524194-7.3524194c.1364516-.1364516.3774193-.1364516.5138709 0l7.3524194 7.3524194c.1408064.142258.1408064.3716129 0 .5138709-.071129.0711291-.1640323.1059678-.2569355.1059678z" stroke="#2BABE2"/><path d="M520.7819516 237.9095c-.2003226 0-.3629032-.1625806-.3629032-.3629032v-14.1837097c0-.2003226.1625806-.3629032.3629032-.3629032s.3629032.1625806.3629032.3629032v14.1837097c0 .2003226-.1625806.3629032-.3629032.3629032" fill="#2BABE2"/><path d="M520.7819516 237.9095c-.2003226 0-.3629032-.1625806-.3629032-.3629032v-14.1837097c0-.2003226.1625806-.3629032.3629032-.3629032s.3629032.1625806.3629032.3629032v14.1837097c0 .2003226-.1625806.3629032-.3629032.3629032z" stroke="#2BABE2"/></g></svg>